<?xml version="1.0" standalone="no"?>
<!DOCTYPE svg PUBLIC "-//W3C//DTD SVG 20010904//EN"
 "http://www.w3.org/TR/2001/REC-SVG-20010904/DTD/svg10.dtd">
<svg version="1.0" xmlns="http://www.w3.org/2000/svg"
 width="700.000000pt" height="700.000000pt" viewBox="0 0 700.000000 700.000000"
 preserveAspectRatio="xMidYMid meet">
<metadata>
Created by potrace 1.11, written by Peter Selinger 2001-2013
</metadata>
<g transform="translate(0.000000,700.000000) scale(0.100000,-0.100000)"
fill="#000000" stroke="none">
<path d="M3417 6854 c-1 -1 -56 -4 -122 -8 -66 -3 -136 -8 -155 -11 -19 -2
-55 -7 -80 -10 -128 -16 -377 -71 -453 -100 -20 -8 -38 -14 -40 -13 -5 3 -175
-55 -270 -93 -106 -42 -294 -134 -385 -188 -29 -17 -55 -31 -57 -31 -18 0
-333 -226 -429 -310 -241 -206 -472 -470 -638 -725 -112 -173 -117 -182 -209
-366 -97 -195 -199 -472 -240 -649 -6 -25 -13 -53 -15 -62 -2 -10 -6 -27 -9
-39 -2 -11 -6 -28 -9 -37 -3 -9 -8 -37 -11 -62 -3 -25 -8 -52 -10 -60 -2 -8
-7 -35 -10 -60 -6 -49 -16 -116 -20 -141 -25 -132 -24 -664 0 -784 2 -11 7
-40 10 -65 12 -108 71 -390 95 -460 7 -21 52 -165 55 -180 1 -3 5 -14 10 -25
4 -11 30 -78 58 -150 342 -882 1084 -1598 1972 -1902 108 -37 277 -84 365
-102 30 -6 66 -14 80 -16 173 -36 319 -48 580 -49 233 -1 431 8 450 19 3 2 30
6 60 10 93 11 299 56 395 85 297 92 519 189 765 336 100 59 253 163 325 221
210 167 378 335 562 563 211 261 424 651 543 995 34 100 94 310 106 369 2 12
10 55 19 96 15 78 19 101 31 185 3 28 8 57 9 65 24 133 24 606 0 780 -2 14 -6
48 -9 75 -3 28 -8 61 -11 75 -3 14 -7 41 -10 60 -3 19 -7 46 -10 60 -3 14 -10
46 -15 73 -45 227 -164 566 -281 800 -363 724 -937 1268 -1662 1576 -247 105
-590 198 -833 226 -33 4 -70 9 -84 11 -58 9 -405 24 -413 18z m309 -358 c238
-24 460 -69 664 -136 106 -34 167 -59 149 -60 -12 0 -194 -48 -664 -173 -476
-127 -802 -214 -945 -252 -91 -24 -266 -70 -390 -104 -300 -80 -431 -115 -660
-175 -192 -50 -447 -119 -528 -141 -91 -25 -90 -28 -23 50 44 52 177 189 232
240 441 405 960 649 1569 739 19 3 76 8 125 12 50 4 91 7 92 9 6 4 317 -3 379
-9z m1085 -311 c276 -139 522 -323 760 -570 111 -115 130 -137 227 -265 265
-348 461 -776 550 -1200 21 -96 24 -118 43 -245 30 -208 33 -632 5 -795 -3
-14 -7 -43 -11 -65 -47 -325 -164 -679 -326 -985 -56 -105 -171 -290 -180
-290 -3 0 -13 30 -22 68 -10 37 -28 110 -42 162 -15 52 -57 214 -96 360 -38
146 -74 281 -79 300 -31 109 -71 258 -74 275 -2 11 -20 79 -39 150 -19 72 -38
144 -42 160 -5 17 -9 32 -10 35 -1 3 -5 19 -9 35 -87 331 -152 577 -170 645
-23 84 -104 389 -112 420 -2 8 -8 33 -14 55 -6 22 -12 47 -14 55 -3 8 -16 58
-30 110 -14 52 -34 131 -46 175 -12 44 -33 123 -46 175 -14 52 -27 102 -29
110 -2 8 -29 110 -60 225 -31 116 -58 217 -60 225 -2 8 -15 60 -30 115 -44
168 -62 235 -95 360 -17 66 -40 150 -50 188 -10 37 -16 67 -13 67 3 0 55 -25
114 -55z m-292 -502 c40 -153 113 -426 161 -608 225 -849 271 -1027 267 -1031
-7 -7 -556 -157 -619 -169 -12 -3 -35 -9 -52 -14 -17 -6 -76 -22 -131 -36 -55
-15 -131 -35 -170 -45 -38 -10 -131 -35 -205 -55 -74 -19 -142 -37 -150 -39
-8 -3 -23 -7 -32 -11 -13 -5 -19 2 -27 34 -6 23 -16 60 -23 84 -6 23 -12 47
-14 52 -2 11 -80 309 -143 545 -22 80 -42 159 -47 175 -4 17 -8 35 -10 40 -8
30 -56 212 -60 225 -2 8 -26 101 -55 205 -28 105 -54 206 -59 225 -5 19 -26
102 -48 183 -27 100 -36 150 -28 152 30 9 133 37 150 41 10 2 44 11 75 20 31
9 63 18 71 19 8 2 49 13 90 24 41 11 194 52 340 90 146 39 346 93 445 120 99
27 185 49 190 50 6 1 44 -124 84 -276z m-1704 -283 c32 -127 27 -107 69 -265
18 -71 48 -184 66 -250 17 -66 58 -219 90 -340 32 -121 63 -238 69 -260 5 -22
37 -143 71 -270 33 -126 74 -281 91 -343 l30 -113 -61 -172 c-33 -95 -69 -197
-80 -227 -30 -89 -239 -687 -275 -790 -18 -52 -54 -156 -80 -230 -26 -74 -64
-184 -85 -245 -82 -234 -180 -514 -212 -607 -18 -54 -35 -98 -38 -98 -3 0 -23
66 -44 147 -121 461 -209 799 -257 978 -22 83 -51 193 -65 245 -14 52 -41 154
-60 225 -20 72 -37 137 -39 145 -7 32 -37 146 -46 175 -5 17 -36 134 -69 260
-33 127 -69 264 -80 305 -24 89 -120 449 -125 470 -6 27 -76 292 -125 475
-109 410 -142 537 -138 540 1 2 140 40 308 84 168 44 472 125 675 179 204 55
373 96 377 93 3 -3 18 -53 33 -111z m-1677 -390 c58 -220 186 -704 223 -840
17 -63 35 -131 39 -150 8 -34 41 -159 110 -413 17 -64 33 -125 35 -135 2 -9
36 -136 75 -282 39 -146 73 -272 74 -280 2 -8 41 -155 86 -325 121 -459 136
-516 180 -680 21 -82 49 -186 60 -230 12 -44 51 -190 86 -325 36 -135 72 -270
80 -300 8 -30 17 -64 19 -75 3 -11 16 -59 29 -107 20 -73 21 -86 8 -80 -27 10
-140 71 -190 102 -26 17 -55 33 -64 36 -10 4 -18 10 -18 15 0 5 -4 9 -10 9 -8
0 -96 56 -110 70 -3 3 -41 32 -85 64 -207 153 -450 401 -595 606 -205 291
-334 547 -439 870 -38 118 -73 249 -85 315 -3 17 -8 39 -10 50 -39 199 -51
338 -51 575 0 107 3 231 7 275 10 102 54 372 74 450 9 33 17 67 19 75 38 173
182 520 296 716 73 126 105 171 111 161 3 -7 24 -82 46 -167z m3898 -1270 c1
-8 23 -89 47 -180 46 -170 63 -231 166 -625 34 -126 77 -289 96 -360 19 -72
37 -140 39 -150 6 -28 63 -243 75 -280 5 -16 19 -70 31 -120 12 -49 28 -110
36 -134 8 -24 13 -45 11 -47 -2 -3 -114 -34 -248 -70 -134 -36 -293 -78 -354
-95 -335 -90 -1188 -316 -1225 -324 -8 -2 -91 -25 -185 -50 -160 -43 -410
-110 -659 -176 -61 -15 -111 -27 -112 -26 -2 1 35 110 81 242 46 132 117 337
158 455 42 118 112 321 157 450 45 129 98 280 117 335 19 55 52 150 73 210 21
61 72 207 113 325 42 118 78 222 82 231 3 10 18 19 33 22 15 2 214 55 442 116
415 111 769 205 910 243 41 11 77 22 79 24 10 9 34 -1 37 -16z m693 -2177
c-46 -58 -155 -177 -219 -241 -224 -221 -436 -372 -725 -517 -234 -118 -486
-210 -658 -241 -17 -2 -33 -7 -36 -9 -4 -2 -27 -6 -51 -10 -25 -4 -52 -8 -60
-10 -8 -2 -40 -6 -70 -10 -30 -4 -66 -9 -80 -11 -131 -22 -508 -21 -670 2 -90
13 -279 46 -315 56 -22 5 -50 12 -62 14 -42 8 -335 105 -330 110 5 5 198 61
232 68 18 4 242 63 550 146 117 31 812 216 1695 450 294 78 596 159 670 180
74 21 137 38 139 39 2 1 -3 -7 -10 -16z"/>
</g>
</svg>
