<?xml version="1.0" encoding="UTF-8" standalone="no"?>
<svg
   xmlns:osb="http://www.openswatchbook.org/uri/2009/osb"
   xmlns:dc="http://purl.org/dc/elements/1.1/"
   xmlns:cc="http://creativecommons.org/ns#"
   xmlns:rdf="http://www.w3.org/1999/02/22-rdf-syntax-ns#"
   xmlns:svg="http://www.w3.org/2000/svg"
   xmlns="http://www.w3.org/2000/svg"
   xmlns:sodipodi="http://sodipodi.sourceforge.net/DTD/sodipodi-0.dtd"
   xmlns:inkscape="http://www.inkscape.org/namespaces/inkscape"
   width="1024mm"
   height="1024mm"
   viewBox="0 0 387.02363 387.02363"
   version="1.1"
   id="svg8"
   inkscape:version="1.0 (4035a4fb49, 2020-05-01)"
   sodipodi:docname="logo.svg">
  <defs
     id="defs2">
    <linearGradient
       osb:paint="solid"
       id="linearGradient2949">
      <stop
         id="stop2947"
         offset="0"
         style="stop-color:#000000;stop-opacity:1;" />
    </linearGradient>
    <linearGradient
       osb:paint="solid"
       id="linearGradient2943">
      <stop
         id="stop2941"
         offset="0"
         style="stop-color:#00bd00;stop-opacity:1;" />
    </linearGradient>
  </defs>
  <sodipodi:namedview
     inkscape:window-maximized="1"
     inkscape:window-y="-12"
     inkscape:window-x="-12"
     inkscape:window-height="2050"
     inkscape:window-width="3840"
     scale-x="0.1"
     showgrid="true"
     inkscape:document-rotation="0"
     inkscape:current-layer="layer1"
     inkscape:document-units="px"
     inkscape:cy="2093.053"
     inkscape:cx="2958.5714"
     inkscape:zoom="0.24748737"
     inkscape:pageshadow="2"
     inkscape:pageopacity="0.0"
     borderopacity="1.0"
     bordercolor="#666666"
     pagecolor="#ffffff"
     id="base">
    <inkscape:grid
       id="grid190"
       type="xygrid" />
  </sodipodi:namedview>
  <metadata
     id="metadata5">
    <rdf:RDF>
      <cc:Work
         rdf:about="">
        <dc:format>image/svg+xml</dc:format>
        <dc:type
           rdf:resource="http://purl.org/dc/dcmitype/StillImage" />
        <dc:title></dc:title>
      </cc:Work>
    </rdf:RDF>
  </metadata>
  <g
     id="layer1"
     inkscape:label="logo">
    <path
       inkscape:label="O"
       d="m 364.46619,193.51181 c 0.67349,65.09391 -37.3623,129.29239 -96.09147,158.05774 C 214.89601,379.11069 146.83359,374.06453 97.848577,339.21985 42.747198,301.68282 13.794052,231.07532 24.731354,165.56328 33.968888,102.10018 80.475271,45.259887 141.94712,25.888594 c 57.44443,-19.3876622 124.41017,-3.591199 167.736,38.64204 34.97363,33.073941 54.96845,80.924786 54.78307,128.981176 z"
       style="fill:none;fill-opacity:1;stroke:#D6852E;stroke-width:19.2341;stroke-miterlimit:4;stroke-dasharray:none;stroke-opacity:1"
       id="path188" />
    <path
       inkscape:label="E_contour_V"
       d="M 132.61183,340.28782 C 111.07457,258.85855 89.537244,177.42926 68.000016,95.999987 129.33334,79.68162 190.66667,63.363201 251.99999,47.044876 273.53725,128.47415 295.07457,209.90344 316.6118,291.33271 255.27848,307.65107 193.94514,323.9695 132.61183,340.28782 Z"
       style="fill:none;fill-opacity:1;stroke:#D6852E;stroke-width:16.9459;stroke-miterlimit:4;stroke-dasharray:none;stroke-opacity:1"
       id="rect2953" />
    <path
       inkscape:label="Y_haut_E_barre"
       d="M 191.70593,193.82149 C 180.9373,153.10684 170.16864,112.3922 159.40002,71.677565 c 30.66666,-8.159178 61.33332,-16.318388 91.99999,-24.477557 10.76863,40.714642 21.53729,81.429282 32.3059,122.143922 -30.66666,8.15918 -61.33332,16.31839 -91.99998,24.47756 z"
       style="fill:none;fill-opacity:1;stroke:#D6852E;stroke-width:16;stroke-miterlimit:4;stroke-dasharray:none;stroke-opacity:1"
       id="rect2955" />
    <path
       inkscape:label="Y_barre_vert"
       d="M 190.06714,192.68812 C 172.95571,241.79208 155.84429,290.89604 138.73286,340"
       style="fill:none;stroke:#D6852E;stroke-width:16;stroke-linecap:butt;stroke-linejoin:miter;stroke-miterlimit:4;stroke-dasharray:none;stroke-opacity:1"
       id="path2957" />
  </g>
</svg>
